<?xml version="1.0" encoding="iso-8859-1"?>
<!-- Uploaded to: SVG Repo, www.svgrepo.com, Generator: SVG Repo Mixer Tools -->
<svg height="800px" width="800px" version="1.1" id="Layer_1" xmlns="http://www.w3.org/2000/svg" xmlns:xlink="http://www.w3.org/1999/xlink" 
	 viewBox="0 0 512 512" xml:space="preserve">
<g>
	<polygon style="fill:#E21B1B;" points="29.984,266.88 18.528,302.136 48.512,280.336 78.48,302.136 67.048,266.88 97.016,245.104 
		59.968,245.104 48.512,209.864 37.056,245.104 0,245.104 	"/>
	<polygon style="fill:#E21B1B;" points="163.712,245.104 152.256,209.864 140.8,245.104 103.744,245.104 133.728,266.88 
		122.272,302.136 152.256,280.336 182.24,302.136 170.784,266.88 200.776,245.104 	"/>
	<polygon style="fill:#E21B1B;" points="267.456,245.104 256,209.864 244.544,245.104 207.488,245.104 237.472,266.88 
		226.016,302.136 256,280.336 285.984,302.136 274.528,266.88 304.512,245.104 	"/>
	<polygon style="fill:#E21B1B;" points="371.2,245.104 359.744,209.864 348.288,245.104 311.224,245.104 341.216,266.88 
		329.76,302.136 359.744,280.336 389.728,302.136 378.272,266.88 408.256,245.104 	"/>
</g>
<polygon style="fill:#CCCCCC;" points="474.944,245.104 463.488,209.864 452.032,245.104 414.984,245.104 444.952,266.88 
	433.496,302.136 463.488,280.336 493.472,302.136 482.016,266.88 512,245.104 "/>
</svg>