<svg width="20" height="21" viewBox="0 0 20 21" fill="none" xmlns="http://www.w3.org/2000/svg">
<path d="M20 19.141L14.4133 13.5543C15.7558 11.9426 16.4253 9.87536 16.2825 7.78263C16.1396 5.68989 15.1954 3.7328 13.6464 2.31847C12.0973 0.904137 10.0626 0.141468 7.96554 0.189117C5.86847 0.236766 3.87051 1.09106 2.38728 2.57429C0.904053 4.05752 0.0497547 6.05549 0.00210549 8.15255C-0.0455437 10.2496 0.717125 12.2843 2.13146 13.8334C3.54579 15.3825 5.50288 16.3266 7.59562 16.4695C9.68835 16.6123 11.7556 15.9428 13.3673 14.6003L18.954 20.187L20 19.141ZM1.50598 8.35084C1.50598 7.03404 1.89645 5.74681 2.62803 4.65193C3.3596 3.55706 4.39941 2.7037 5.61598 2.19979C6.83254 1.69587 8.17121 1.56402 9.46271 1.82092C10.7542 2.07781 11.9405 2.71191 12.8716 3.64303C13.8028 4.57414 14.4369 5.76046 14.6937 7.05195C14.9506 8.34345 14.8188 9.68212 14.3149 10.8987C13.811 12.1152 12.9576 13.1551 11.8627 13.8866C10.7678 14.6182 9.48062 15.0087 8.16382 15.0087C6.39865 15.0067 4.70634 14.3046 3.45818 13.0565C2.21001 11.8083 1.50793 10.116 1.50598 8.35084Z" fill="white"/>
</svg>
